PathFileType	4	(X/Y/Z)	D:\Long Term Storage\D'Arcy Smith\Coord13.trc
DataRate	CameraRate	NumFrames	NumMarkers	Units	OrigDataRate	OrigDataStartFrame	OrigNumFrames
120.00	120.00	      125	4	mm	120.00	600	      4795
Frame#	Time	M1			M2			M3			M4			
		X1	Y1	Z1	X2	Y2	Z2	X3	Y3	Z3	X4	Y4	Z4	

600	4.992	1025.15430	272.22226	565.09595	1675.29236	348.13663	274.08524							
601	5.000	1025.05823	271.15359	561.40839	1675.68762	345.40839	277.81055							
602	5.008	1025.04993	269.92776	557.34167	1675.94214	342.68307	282.03000							
603	5.017	1025.17041	268.82214	552.91931	1676.23059	339.67148	286.39102							
604	5.025	1025.24829	267.60410	548.22534	1676.15210	336.42728	291.08130							
605	5.033	1025.69299	266.50003	543.36481	1676.36292	333.08588	296.02856							
606	5.042	1025.58484	265.33640	537.89819	1676.26270	329.65244	301.18790							
607	5.050	1025.79382	264.26874	532.18176	1676.12524	325.93414	306.67938							
608	5.058	1026.28369	263.28442	526.29456	1675.51599	322.28339	312.51367							
609	5.067	1026.56299	262.29889	520.06323	1675.06897	318.49167	318.47552							
610	5.075	1026.82581	261.50839	513.49744	1674.63672	314.53702	324.89508							
611	5.083	1027.72058	260.09436	507.29620	1674.24792	310.53568	331.58527							
612	5.092	1028.17407	259.39294	500.01273	1673.79797	306.69666	338.01950							
613	5.100	1028.73364	258.70178	492.56943	1673.12036	302.77731	345.40958							
614	5.108	1029.27441	258.24072	484.60846	1672.28638	298.82568	353.20267							
615	5.117	1030.08179	257.80038	476.79272	1671.48242	295.06256	361.28940							
616	5.125	1031.06543	257.48727	468.32370	1670.64063	291.35654	369.77740							
617	5.133	1031.80847	257.27133	459.51141	1669.74634	287.84079	378.51849							
618	5.142	1032.67285	257.37073	450.48352	1668.68103	284.34869	387.66348							
619	5.150	1033.65857	257.70291	441.49081	1667.64380	281.07159	397.07776							
620	5.158	1034.63745	258.12796	431.81378	1666.52185	277.88950	406.77731							
621	5.167	1035.73254	258.89560	422.15805	1665.45898	275.04053	416.73544							
622	5.175	1036.67664	259.87692	412.34518	1664.12390	272.34375	427.03424							
623	5.183	1038.05737	261.11899	402.25967	1662.75781	270.17197	437.41824							
624	5.192	1039.37195	262.49603	391.94125	1661.50647	268.70187	447.98254							
625	5.200	1040.68140	264.16281	381.53040	1659.49768	267.05106	458.68628							
626	5.208	1041.98657	266.15808	371.08041	1657.69653	266.05176	469.34427							
627	5.217	1043.14636	268.13199	360.30630	1655.90698	265.77008	480.59772							
628	5.225	1044.76111	270.75098	349.73386	1654.08728	265.59695	490.89606							
629	5.233	1046.06519	273.34122	339.08096	1652.34595	265.87177	501.16040							
630	5.242	1047.61646	276.36340	328.41739	1650.58215	266.39676	511.32217							
631	5.250	1048.94910	280.03531	316.79214	1648.83350	267.07803	520.95770							
632	5.258	1050.46533	283.43842	306.38477	1647.09619	267.86844	530.40326							
633	5.267	1051.90894	287.09430	295.98672	1645.51208	268.83163	539.62219							
634	5.275	1053.46533	291.00693	285.93210	1643.81323	269.93463	548.58099							
635	5.283	1054.82983	295.09323	276.00809	1642.07104	271.19614	557.15619							
636	5.292	1056.27136	299.30319	266.27090	1640.27820	272.33823	565.29626							
637	5.300	1057.79517	303.55197	256.89255	1638.43701	273.71780	573.07312							
638	5.308	1059.16650	307.84052	247.75902	1636.61279	275.26221	580.61078							
639	5.317	1060.45313	312.17996	238.91792	1635.03003	276.90268	587.60382							
640	5.325	1061.82544	316.48837	230.49217	1633.08350	278.08182	594.02264							
641	5.333	1063.03979	320.78470	222.58267	1631.60266	279.87473	600.27380							
642	5.342	1064.27466	325.08972	214.98640	1630.01086	281.22556	606.15479							
643	5.350	1065.50476	329.19733	207.86290	1628.54309	282.56540	611.49463							
644	5.358	1066.61182	333.38046	201.30986	1627.32458	283.96411	616.51465							
645	5.367	1067.49194	337.46576	195.14223	1625.86707	285.04877	621.20959							
646	5.375	1068.71033	341.27841	189.60522	1624.51392	285.91565	625.26807							
647	5.383	1069.52502	345.05283	184.50899	1623.25989	286.87219	629.35681							
648	5.392	1069.90442	348.82648	179.67384	1622.00867	287.83868	633.30829							
649	5.400	1070.53638	352.02390	175.51709	1620.83435	288.66959	636.84558							
650	5.408	1071.12170	354.92648	172.01740	1619.56128	289.43921	640.22369							
651	5.417	1071.37805	357.12689	168.91994	1619.01221	290.65335	643.30994							
652	5.425	1071.57300	359.18909	166.48695	1617.49854	291.08264	646.08130							
653	5.433	1072.30786	361.46732	164.39163	1616.58289	291.85391	648.54932							
654	5.442	1072.12024	362.60123	163.02271	1615.79382	292.65027	650.82190							
655	5.450	1072.22095	363.71893	162.14723	1615.84082	293.83078	652.88287							
656	5.458	1072.23303	364.48172	161.77901	1615.34729	294.62866	654.67700							
657	5.467	1072.35205	365.20062	161.71568	1614.47107	294.73465	656.01697							
658	5.475	1072.18665	365.26349	162.26263	1614.85547	295.70483	657.49158							
659	5.483	1071.68762	364.76685	163.31024	1614.63281	296.17899	658.71777							
660	5.492	1071.37671	364.15192	164.59442	1614.69617	296.61423	659.69049							
661	5.500	1070.94727	363.24277	166.26184	1614.95276	297.06165	660.61212							
662	5.508	1070.71545	361.95560	168.28087	1615.09509	297.22992	661.27930							
663	5.517	1070.18164	360.38754	170.66728	1615.49438	297.35745	661.75739							
664	5.525	1069.93384	358.60779	173.27043	1616.01392	297.36084	661.98187							
665	5.533	1069.60999	356.70282	176.13403	1616.51685	297.34857	662.16705							
666	5.542	1068.79944	354.19641	179.28783	1617.34155	297.30331	662.09491							
667	5.550	1068.32568	351.56680	182.78757	1617.57080	296.64410	661.76532							
668	5.558	1068.21460	349.16467	186.43883	1618.86938	296.92719	661.36920							
669	5.567	1067.65466	346.22684	190.44772	1619.87610	296.70224	660.61505							
670	5.575	1066.96753	343.19315	194.51651	1621.03906	296.40891	659.41974							
671	5.583	1067.03906	339.68747	198.99773	1621.40112	295.77179	658.01874							
672	5.592	1066.46033	336.41556	203.60616	1622.37842	295.32355	656.31726							
673	5.600	1065.89868	333.02838	208.45392	1623.40466	294.92941	654.17316							
674	5.608	1065.32080	329.61316	213.39856	1625.07629	294.91605	651.86908							
675	5.617	1064.74170	326.05637	218.47934	1625.64624	293.77170	648.89832							
676	5.625	1064.02600	322.57553	223.84560	1626.75220	293.05356	645.70111							
677	5.633	1063.48181	319.07379	229.32117	1628.07617	292.59229	642.22668							
678	5.642	1062.78870	315.40540	234.79730	1628.68677	291.24347	638.05688							
679	5.650	1062.30737	311.82123	240.64777	1629.77698	290.16876	633.51630							
680	5.658	1061.61182	308.12173	246.58759	1630.94348	289.02975	628.56805							
681	5.667	1061.03223	304.48566	252.64908	1631.59692	287.52905	623.47162							
682	5.675	1060.33960	300.78479	258.96234	1632.68762	286.22726	617.95654							
683	5.683	1059.81799	297.11917	265.37115	1633.64551	284.76282	611.65161							
684	5.692	1059.19128	293.48358	272.04724	1634.31873	283.29074	604.86340							
685	5.700	1058.59509	289.80618	278.89761	1635.00256	281.35141	597.46954							
686	5.708	1058.09619	286.25095	285.86743	1635.75171	279.81631	589.64008							
687	5.717	1057.50610	282.63760	293.16205	1636.35217	278.08813	581.29291							
688	5.725	1056.89832	278.98642	300.71481	1636.93030	276.56870	572.44366							
689	5.733	1056.11938	275.76093	308.38098	1637.46021	275.05759	563.08228							
690	5.742	1055.81250	272.12573	316.48019	1637.92188	273.58301	553.09222							
691	5.750	1055.08545	268.75668	324.47296	1638.36707	272.37848	542.65576							
692	5.758	1054.62732	265.76932	333.84662	1638.83154	271.32184	531.94025							
693	5.767	1054.04858	262.95465	342.68628	1639.00452	270.34964	520.67377							
694	5.775	1053.39966	260.28491	351.61664	1639.33813	269.70807	508.97321							
695	5.783	1053.14905	257.34039	361.61478	1639.61426	269.42496	497.20581							
696	5.792	1052.70605	255.07567	370.89371	1639.71594	269.42209	485.07986							
697	5.800	1052.16187	253.21037	380.42871	1639.87781	269.68317	472.37122							
698	5.808	1051.74927	251.50491	389.93295	1640.32056	270.69254	459.87500							
699	5.817	1051.46924	249.75433	399.57159	1639.95068	271.39853	447.52859							
700	5.825	1051.09204	248.50768	409.23886	1639.96802	272.80005	435.07120							
701	5.833	1050.71167	247.35217	418.79065	1639.98511	274.59195	422.77771							
702	5.842	1050.41150	246.46173	428.60440	1640.05310	276.72113	410.40036							
703	5.850	1050.10742	245.71898	438.06577	1640.20593	279.26276	398.39127							
704	5.858	1049.86768	245.43788	447.82422	1640.34204	281.91290	386.51837							
705	5.867	1049.79138	245.30855	457.21753	1640.54834	285.04245	374.92783							
706	5.875	1049.37891	245.70721	466.46634	1640.77942	288.41849	363.89560							
707	5.883	1049.33362	246.29471	475.55444	1641.01624	291.91513	353.10886							
708	5.892	1049.09814	247.04926	484.46182	1641.24475	295.78601	343.07092							
709	5.900	1049.06628	247.86591	492.91959	1641.19690	299.30508	333.84973							
710	5.908	1048.64673	249.05211	501.15485	1641.44824	303.28510	324.86066							
711	5.917	1048.04407	251.04488	508.71121	1642.48914	307.09741	316.52237							
712	5.925	1048.00745	251.93883	516.02283	1643.00903	311.17920	308.68759							
713	5.933	1047.77795	253.22246	523.21619	1643.55701	315.21246	301.41092							
714	5.942	1047.59473	254.63358	529.99677	1644.23743	319.22940	295.22955							
715	5.950	1047.62402	255.56175	536.83350	1644.96948	322.99347	289.25885							
716	5.958	1046.85132	257.75162	542.18475	1645.72693	326.53845	284.16925							
717	5.967	1046.61877	259.54367	547.97809	1646.72607	329.94580	279.80014							
718	5.975	1046.27551	261.26862	553.09137	1647.82739	333.04837	276.07111							
719	5.983	1046.02747	262.75067	557.86609	1648.96509	335.75723	272.94254							
720	5.992	1045.56848	264.51846	562.04364	1650.01489	338.18234	270.30081							
721	6.000	1044.96045	265.86105	565.64136	1651.26294	340.30243	268.34946							
722	6.008	1044.45825	267.22058	568.76801	1652.72705	342.11719	266.86353							
723	6.017	1043.93262	268.46674	571.49957	1654.14417	343.41605	265.94312							
724	6.025	1043.12012	269.50681	573.79932	1655.53479	344.54953	265.49887							
